<svg width="190" height="84" viewBox="0 0 190 84" fill="none" xmlns="http://www.w3.org/2000/svg">
<line x1="0.574333" y1="39.5393" x2="0.574333" y2="1.14441e-05" stroke="#E90000"/>
<line x1="40.5056" y1="0.500275" x2="0.966309" y2="0.500275" stroke="#E90000"/>
<line x1="6.732" y1="39.539" x2="6.732" y2="5.83388" stroke="#E90000"/>
<line x1="40.505" y1="6.33386" x2="7.23201" y2="6.33386" stroke="#E90000"/>
<line x1="188.976" y1="44.191" x2="188.976" y2="83.7303" stroke="#E90000"/>
<line x1="149.045" y1="83.2301" x2="188.584" y2="83.2301" stroke="#E90000"/>
<line x1="182.819" y1="44.1913" x2="182.819" y2="77.8965" stroke="#E90000"/>
<line x1="149.046" y1="77.3965" x2="182.319" y2="77.3965" stroke="#E90000"/>
<rect x="21.1236" y="20.1573" width="149.629" height="48.0674" fill="#E31616"/>
<path d="M43.0998 29.0307C44.2717 29.101 45.2561 29.1596 46.0529 29.2065C46.8733 29.2299 47.5529 29.2533 48.092 29.2768C48.7014 29.3002 49.217 29.3002 49.6389 29.2768C50.0608 29.2533 50.635 29.1947 51.3615 29.101C51.9709 29.0307 52.7795 28.9252 53.7873 28.7846C54.8186 28.6205 56.0959 28.4096 57.6194 28.1518C57.0803 28.6908 56.6584 29.183 56.3537 29.6283C56.0725 30.0502 55.8498 30.4135 55.6858 30.7182C55.4983 31.0932 55.3694 31.4096 55.299 31.6674C55.2522 31.9018 55.299 32.4877 55.4397 33.4252C55.5803 34.3627 55.7795 35.476 56.0373 36.765C56.2951 38.0307 56.5764 39.39 56.8811 40.8432C57.1858 42.2729 57.4904 43.6205 57.7951 44.8861C58.0998 46.1283 58.3694 47.1947 58.6037 48.0854C58.8615 48.9525 59.049 49.4682 59.1662 49.6322C59.5178 50.1244 59.7404 50.4525 59.8342 50.6166C59.9279 50.7572 60.092 50.8861 60.3264 51.0033C60.4201 51.0502 60.5725 51.1205 60.7834 51.2143C60.9709 51.308 61.217 51.4252 61.5217 51.5658C61.8498 51.7065 62.26 51.8705 62.7522 52.058C61.8381 52.1049 61.0529 52.14 60.3967 52.1635C59.7404 52.1635 59.2014 52.1752 58.7795 52.1986C58.2873 52.2221 57.8654 52.2455 57.5139 52.269C57.1623 52.269 56.7404 52.2924 56.2483 52.3393C55.8264 52.3861 55.2756 52.433 54.5959 52.4799C53.9397 52.5268 53.1662 52.5736 52.2756 52.6205C52.7444 52.2924 53.1194 51.9994 53.4006 51.7416C53.7053 51.4604 53.9397 51.226 54.1037 51.0385C54.2912 50.8041 54.4201 50.5932 54.4904 50.4057C54.5373 50.1947 54.5725 49.8783 54.5959 49.4565C54.6194 49.0815 54.6194 48.5893 54.5959 47.9799C54.5725 47.3471 54.5139 46.5268 54.4201 45.519L45.174 46.4682C44.9397 46.8666 44.7639 47.2182 44.6467 47.5229C44.5295 47.8041 44.4475 48.0502 44.4006 48.2611C44.3303 48.519 44.3069 48.7299 44.3303 48.894C44.3772 49.0815 44.4592 49.3041 44.5764 49.5619C44.6936 49.7963 44.8576 50.0775 45.0686 50.4057C45.3029 50.7104 45.6428 51.0736 46.0881 51.4955C45.5022 51.4721 44.9045 51.4604 44.2951 51.4604C43.6858 51.4604 43.1233 51.4721 42.6076 51.4955C41.9983 51.519 41.4006 51.5424 40.8147 51.5658C40.2287 51.5893 39.5608 51.6244 38.8108 51.6713C38.1779 51.7182 37.4397 51.7768 36.5959 51.8471C35.7287 51.894 34.8029 51.9643 33.8186 52.058C34.4279 51.7768 34.9436 51.4955 35.3654 51.2143C35.7873 50.9096 36.1389 50.6283 36.4201 50.3705C36.7483 50.0893 37.0295 49.8197 37.2639 49.5619C37.4279 49.3275 37.7561 48.7885 38.2483 47.9447C38.7404 47.0775 39.2912 46.058 39.9006 44.8861C40.5334 43.7143 41.1897 42.4604 41.8694 41.1244C42.5725 39.7885 43.2053 38.5346 43.7678 37.3627C44.3303 36.1674 44.7873 35.1361 45.1389 34.269C45.4904 33.4018 45.6662 32.8393 45.6662 32.5815C45.6194 32.2768 45.5022 31.9369 45.3147 31.5619C45.1506 31.2338 44.8928 30.8588 44.5412 30.4369C44.2131 30.015 43.7326 29.5463 43.0998 29.0307ZM53.9983 42.9174C53.8576 42.0971 53.7287 41.394 53.6115 40.808C53.4944 40.1986 53.4006 39.6947 53.3303 39.2963C53.2365 38.8275 53.1662 38.4174 53.1194 38.0658C53.049 37.7377 52.967 37.3158 52.8733 36.8002C52.7795 36.3549 52.6623 35.8041 52.5217 35.1479C52.4045 34.4682 52.2522 33.6596 52.0647 32.7221C50.7287 35.394 49.6858 37.4682 48.9358 38.9447C48.2092 40.3979 47.6819 41.4643 47.3537 42.144C46.9553 42.9408 46.7326 43.4096 46.6858 43.5502L53.9983 42.9174ZM61.4514 28.1518C61.9904 28.2924 62.4826 28.3979 62.9279 28.4682C63.3967 28.515 63.7951 28.5502 64.1233 28.5736C64.5217 28.5971 64.885 28.6088 65.2131 28.6088C65.5412 28.6088 65.9514 28.5854 66.4436 28.5385C67.3108 28.4682 68.5412 28.2924 70.135 28.0111C69.8772 28.1986 69.6311 28.3861 69.3967 28.5736C69.1858 28.7377 68.9983 28.9018 68.8342 29.0658L68.3069 29.5932C68.0022 30.015 67.6975 30.7299 67.3928 31.7377C67.135 32.6049 66.8537 33.8236 66.549 35.394C66.2678 36.9643 66.01 39.0502 65.7756 41.6518C66.924 40.5268 68.0022 39.683 69.01 39.1205C70.0412 38.5346 70.9436 38.1127 71.717 37.8549C72.6311 37.5736 73.4631 37.4213 74.2131 37.3979C75.174 37.4682 76.0061 37.6674 76.7092 37.9955C77.4358 38.3002 78.0451 38.6752 78.5373 39.1205C79.0529 39.5424 79.4631 39.9877 79.7678 40.4565C80.0959 40.9018 80.342 41.3002 80.5061 41.6518C80.5998 41.8861 80.6701 42.3197 80.717 42.9525C80.7873 43.5619 80.799 44.265 80.7522 45.0619C80.7053 45.8588 80.5764 46.7025 80.3654 47.5932C80.1779 48.4604 79.8615 49.269 79.4162 50.019C78.9944 50.7455 78.4319 51.3549 77.7287 51.8471C77.049 52.3393 76.1936 52.6088 75.1623 52.6557C73.967 52.6557 72.8069 52.515 71.6819 52.2338C70.7209 51.9994 69.7014 51.5893 68.6233 51.0033C67.5686 50.394 66.6662 49.5268 65.9162 48.4018C65.9162 48.683 65.9162 48.9643 65.9162 49.2455C65.9162 49.5033 65.9279 49.726 65.9514 49.9135C65.9748 50.1713 65.9983 50.394 66.0217 50.5815C66.0451 50.7924 66.1037 51.015 66.1975 51.2494C66.2678 51.4369 66.3733 51.6713 66.5139 51.9525C66.6779 52.2104 66.8889 52.4682 67.1467 52.726C66.8889 52.7025 66.6311 52.6908 66.3733 52.6908C66.1154 52.6674 65.8576 52.6674 65.5998 52.6908C65.3186 52.7143 65.0373 52.7377 64.7561 52.7611C64.4748 52.7846 64.1819 52.8197 63.8772 52.8666C63.6194 52.9135 63.3147 52.9721 62.9631 53.0424C62.6115 53.1127 62.2483 53.1947 61.8733 53.2885C61.9436 53.0775 62.0022 52.7729 62.049 52.3744C62.0959 51.9525 62.1428 51.4955 62.1897 51.0033C62.26 50.4877 62.3069 49.9486 62.3303 49.3861C62.3772 48.8236 62.424 48.2611 62.4709 47.6986C62.5647 46.4096 62.6467 45.0033 62.717 43.4799C62.7873 41.1127 62.799 38.9096 62.7522 36.8705C62.7287 36.0033 62.6819 35.1244 62.6115 34.2338C62.5647 33.3432 62.4944 32.5111 62.4006 31.7377C62.3069 30.9408 62.1779 30.2377 62.0139 29.6283C61.8733 28.9955 61.6858 28.5033 61.4514 28.1518ZM66.0217 45.2729C66.3967 45.9525 66.7951 46.5385 67.217 47.0307C67.6389 47.4994 68.0608 47.8979 68.4826 48.226C68.9045 48.5541 69.3147 48.8119 69.7131 48.9994C70.135 49.1869 70.5334 49.3275 70.9084 49.4213C71.7756 49.6557 72.6311 49.6791 73.4748 49.4916C74.3186 49.2572 74.9748 48.7885 75.4436 48.0854C75.9123 47.3822 76.2756 46.5854 76.5334 45.6947C76.6506 45.2729 76.7209 44.7338 76.7444 44.0775C76.7912 43.4213 76.7209 42.7885 76.5334 42.1791C76.3694 41.5463 76.0647 40.9955 75.6194 40.5268C75.174 40.0346 74.5295 39.7416 73.6858 39.6479C73.0998 39.6479 72.4201 39.8119 71.6467 40.14C70.967 40.4213 70.1584 40.89 69.2209 41.5463C68.2834 42.1791 67.217 43.1283 66.0217 44.394V45.2729ZM91.8264 37.0815C92.4358 37.0815 93.0686 37.1986 93.7248 37.433C94.3811 37.644 95.0139 37.9252 95.6233 38.2768C96.2326 38.6049 96.7834 38.9682 97.2756 39.3666C97.7912 39.7416 98.2131 40.1049 98.5412 40.4565C99.1272 41.0893 99.5256 41.9447 99.7365 43.0229C99.9709 44.0775 100.018 45.1674 99.8772 46.2924C99.7365 47.394 99.4084 48.4369 98.8928 49.4213C98.3772 50.4057 97.6623 51.1322 96.7483 51.601C96.092 51.9291 95.4475 52.1869 94.8147 52.3744C94.1819 52.5619 93.5725 52.7025 92.9865 52.7963C92.4006 52.89 91.8498 52.9369 91.3342 52.9369C90.8186 52.9369 90.3733 52.9252 89.9983 52.9018C89.2951 52.8549 88.5569 52.6088 87.7834 52.1635C87.0334 51.7182 86.3186 51.1674 85.6389 50.5111C84.9826 49.8549 84.4201 49.14 83.9514 48.3666C83.4826 47.5697 83.2014 46.8197 83.1076 46.1166C82.967 45.1557 82.9436 44.1479 83.0373 43.0932C83.1311 42.0385 83.4709 41.0658 84.0569 40.1752C84.6662 39.2846 85.5803 38.5463 86.799 37.9604C88.0412 37.3744 89.717 37.0815 91.8264 37.0815ZM90.6662 50.7221C90.924 50.769 91.2756 50.7104 91.7209 50.5463C92.1662 50.3588 92.5998 50.0658 93.0217 49.6674C93.467 49.269 93.8537 48.765 94.1819 48.1557C94.5334 47.5229 94.7444 46.7611 94.8147 45.8705C94.885 45.0033 94.885 44.2065 94.8147 43.4799C94.7678 42.7533 94.6623 42.1205 94.4983 41.5815C94.3342 41.019 94.1467 40.5619 93.9358 40.2104C93.7248 39.8588 93.5022 39.6127 93.2678 39.4721C92.8694 39.2611 92.3889 39.0971 91.8264 38.9799C91.2639 38.8393 90.7834 38.8627 90.385 39.0502C90.1975 39.144 89.9631 39.3432 89.6819 39.6479C89.4006 39.9525 89.1194 40.3393 88.8381 40.808C88.5569 41.2533 88.299 41.769 88.0647 42.3549C87.8537 42.9408 87.7014 43.5502 87.6076 44.183C87.5139 44.8158 87.4904 45.4955 87.5373 46.2221C87.6076 46.9486 87.76 47.64 87.9944 48.2963C88.2287 48.9291 88.5569 49.4799 88.9787 49.9486C89.424 50.394 89.9865 50.6518 90.6662 50.7221ZM101.74 36.6596C102.35 36.7768 102.877 36.8705 103.322 36.9408C103.791 36.9877 104.19 37.0346 104.518 37.0815C104.893 37.1283 105.221 37.1635 105.502 37.1869C105.783 37.2104 106.112 37.2338 106.487 37.2572C107.119 37.2807 108.01 37.2807 109.158 37.2572C108.479 37.2104 107.94 37.3861 107.541 37.7846C107.166 38.1596 106.885 38.5932 106.697 39.0854C106.463 39.6713 106.334 40.351 106.311 41.1244C106.264 42.1557 106.287 43.0932 106.381 43.9369C106.498 44.7572 106.697 45.4604 106.979 46.0463C107.283 46.6088 107.682 47.0307 108.174 47.3119C108.666 47.5697 109.299 47.64 110.072 47.5229C110.846 47.4057 111.432 47.1361 111.83 46.7143C112.252 46.269 112.557 45.7299 112.744 45.0971C112.932 44.4408 113.037 43.7025 113.061 42.8822C113.108 42.0619 113.143 41.2065 113.166 40.3158C113.166 39.4252 113.155 38.7924 113.131 38.4174C113.131 38.019 113.119 37.7611 113.096 37.644C113.072 37.5268 113.037 37.4799 112.99 37.5033C112.944 37.5033 112.885 37.4447 112.815 37.3275C112.768 37.2338 112.697 37.14 112.604 37.0463C112.533 36.9525 112.44 36.8471 112.322 36.7299C112.205 36.5893 112.076 36.4486 111.936 36.308C112.545 36.3315 113.084 36.3549 113.553 36.3783C114.045 36.3783 114.455 36.39 114.783 36.4135C115.158 36.4369 115.487 36.4604 115.768 36.4838C116.026 36.5072 116.365 36.5424 116.787 36.5893C117.139 36.6361 117.596 36.683 118.158 36.7299C118.721 36.7768 119.389 36.8471 120.162 36.9408C119.623 37.058 119.19 37.2338 118.862 37.4682C118.533 37.7025 118.276 37.9369 118.088 38.1713C117.877 38.4291 117.725 38.7104 117.631 39.015C117.561 39.4135 117.561 40.0229 117.631 40.8432C117.678 41.5697 117.795 42.5658 117.983 43.8315C118.17 45.0971 118.463 46.7611 118.862 48.8236L116.084 50.476L115.522 45.8002C114.842 46.9486 114.115 47.8393 113.342 48.4721C112.592 49.0815 111.889 49.5268 111.233 49.808C110.459 50.1361 109.709 50.3236 108.983 50.3705C108.022 50.3705 107.19 50.3119 106.487 50.1947C105.807 50.0541 105.221 49.8783 104.729 49.6674C104.237 49.4565 103.838 49.2221 103.533 48.9643C103.252 48.683 103.041 48.4018 102.901 48.1205C102.572 47.5346 102.397 46.7846 102.373 45.8705C102.35 44.933 102.385 44.0072 102.479 43.0932C102.572 42.1557 102.678 41.3002 102.795 40.5268C102.912 39.7533 102.947 39.226 102.901 38.9447C102.854 38.7338 102.783 38.4994 102.69 38.2416C102.596 38.0307 102.479 37.7963 102.338 37.5385C102.197 37.2572 101.998 36.9643 101.74 36.6596ZM120.268 30.683C120.971 30.7533 121.557 30.8119 122.026 30.8588C122.518 30.9057 122.916 30.9408 123.221 30.9643C123.572 30.9877 123.854 30.9994 124.065 30.9994C124.276 31.0229 124.557 31.0229 124.908 30.9994C125.213 30.976 125.612 30.9525 126.104 30.9291C126.596 30.8822 127.217 30.8119 127.967 30.7182C127.803 30.9525 127.674 31.1635 127.58 31.351C127.487 31.515 127.405 31.6674 127.334 31.808L127.123 32.2299C127.076 32.3705 127.03 32.5111 126.983 32.6518C126.936 32.769 126.889 32.9096 126.842 33.0736C126.819 33.2377 126.795 33.4135 126.772 33.601H132.186L131.694 36.4486L126.737 36.1674C126.619 37.3627 126.537 38.2885 126.49 38.9447C126.444 39.601 126.397 40.0815 126.35 40.3861L126.28 41.019C126.209 41.9096 126.139 42.8822 126.069 43.9369C125.998 44.9682 125.975 45.9291 125.998 46.8197C126.022 47.7104 126.104 48.4604 126.244 49.0697C126.385 49.6557 126.631 49.9486 126.983 49.9486C127.334 49.9486 127.662 49.8549 127.967 49.6674C128.272 49.4799 128.53 49.2572 128.74 48.9994C128.975 48.7416 129.151 48.4838 129.268 48.226C129.385 47.9447 129.444 47.7338 129.444 47.5932C129.444 47.4525 129.408 47.2885 129.338 47.101C129.221 46.7494 129.01 46.3041 128.705 45.765C129.385 45.9291 129.983 46.0932 130.498 46.2572C130.756 46.351 130.99 46.4447 131.201 46.5385C131.436 46.6322 131.705 46.7377 132.01 46.8549C132.268 46.9721 132.596 47.1127 132.994 47.2768C133.393 47.4408 133.862 47.64 134.401 47.8744C133.885 47.9682 133.51 48.1205 133.276 48.3315C133.135 48.4252 133.03 48.5307 132.959 48.6479C132.795 48.9057 132.608 49.2572 132.397 49.7025C132.186 50.1244 131.869 50.5463 131.447 50.9682C131.026 51.39 130.451 51.765 129.725 52.0932C129.022 52.4213 128.072 52.6088 126.877 52.6557C125.635 52.7025 124.686 52.4916 124.03 52.0229C123.397 51.5541 122.928 51.015 122.623 50.4057C122.342 49.7729 122.178 49.1518 122.131 48.5424C122.084 47.933 122.049 47.5229 122.026 47.3119C122.002 47.101 122.002 46.5736 122.026 45.7299C122.049 44.8861 122.084 43.9604 122.131 42.9525C122.178 41.9213 122.225 40.9369 122.272 39.9994C122.319 39.0385 122.342 38.3354 122.342 37.89C122.342 37.6557 122.354 37.4096 122.377 37.1518C122.377 36.9408 122.377 36.7182 122.377 36.4838C122.401 36.226 122.412 35.9799 122.412 35.7455L117.315 35.7104L117.104 33.7065L122.237 33.8471C122.19 33.5893 122.131 33.3549 122.061 33.144C122.014 32.9096 121.967 32.7221 121.92 32.5815C121.85 32.4174 121.78 32.2768 121.709 32.1596C121.615 32.0424 121.51 31.9135 121.393 31.7729C121.276 31.6557 121.123 31.5033 120.936 31.3158C120.748 31.1283 120.526 30.9174 120.268 30.683Z" fill="#131313"/>
</svg>
