<svg width="700" height="700" viewBox="0 0 700 700" fill="none" xmlns="http://www.w3.org/2000/svg">
<path fill-rule="evenodd" clip-rule="evenodd" d="M558.766 628.451C643.311 564.963 698 463.868 698 350C698 157.805 542.195 2 350 2C329.957 2 310.309 3.69446 291.193 6.94796L290.645 5.0122C309.937 1.71664 329.768 0 350 0C543.3 0 700 156.7 700 350C700 464.608 644.914 566.351 559.775 630.195L558.766 628.451ZM504.24 662.038C457.754 685.06 405.388 698 350 698C157.805 698 2 542.195 2 350C2 218.609 74.8162 104.225 182.296 45.0013L181.678 43.0582C73.3908 102.567 0 217.713 0 350C0 543.3 156.7 700 350 700C405.753 700 458.462 686.964 505.244 663.773L504.24 662.038Z" fill="#DF1414"/>
<path fill-rule="evenodd" clip-rule="evenodd" d="M74 350C74 250.9 126.229 163.999 204.662 115.322L205.287 117.289C127.661 165.663 76 251.799 76 350C76 501.326 198.674 624 350 624C391.879 624 431.563 614.605 467.06 597.807L468.065 599.544C432.271 616.509 392.244 626 350 626C197.569 626 74 502.431 74 350ZM522.368 565.571C585.541 514.993 626 437.221 626 350C626 197.569 502.431 73.9999 350 73.9999C336.745 73.9999 323.708 74.9344 310.951 76.7409L311.501 78.6834C324.08 76.9146 336.933 75.9999 350 75.9999C501.326 75.9999 624 198.674 624 350C624 436.481 583.935 513.604 521.354 563.82L522.368 565.571Z" fill="#DF1414"/>
</svg>
