<svg width="190" height="84" viewBox="0 0 190 84" fill="none" xmlns="http://www.w3.org/2000/svg">
<line x1="0.990051" y1="39.5393" x2="0.990051" y2="1.14441e-05" stroke="#E90000"/>
<line x1="40.9213" y1="0.500275" x2="1.38202" y2="0.500275" stroke="#E90000"/>
<line x1="7.14772" y1="39.539" x2="7.14772" y2="5.83388" stroke="#E90000"/>
<line x1="40.9207" y1="6.33386" x2="7.64771" y2="6.33386" stroke="#E90000"/>
<line x1="189.392" y1="44.191" x2="189.392" y2="83.7303" stroke="#E90000"/>
<line x1="149.461" y1="83.2301" x2="189" y2="83.2301" stroke="#E90000"/>
<line x1="183.234" y1="44.1913" x2="183.234" y2="77.8965" stroke="#E90000"/>
<line x1="149.461" y1="77.3965" x2="182.734" y2="77.3965" stroke="#E90000"/>
<rect x="21.5393" y="20.1573" width="149.629" height="48.0674" fill="#E31616"/>
<path d="M51.5663 27.4486C53.0663 27.4252 54.2968 27.6947 55.2577 28.2572C56.2421 28.8197 57.039 29.4877 57.6483 30.2611C58.2577 31.0346 58.7265 31.8197 59.0546 32.6166C59.3827 33.39 59.6405 33.9994 59.828 34.4447C59.8749 34.5619 59.9687 34.7143 60.1093 34.9018C60.2265 35.0658 60.3905 35.265 60.6015 35.4994C60.8358 35.7104 61.1288 35.9565 61.4804 36.2377C60.7538 36.2611 60.1093 36.2846 59.5468 36.308C58.9843 36.308 58.5038 36.3197 58.1054 36.3432C57.6601 36.3666 57.2616 36.39 56.9101 36.4135C56.5585 36.4369 56.1249 36.4721 55.6093 36.519C55.1405 36.5658 54.5663 36.6127 53.8866 36.6596C53.2069 36.7065 52.3749 36.7768 51.3905 36.8705C51.9765 36.1674 52.4335 35.5463 52.7616 35.0072C53.1132 34.4447 53.371 33.9525 53.5351 33.5307C53.7226 33.0854 53.828 32.6986 53.8515 32.3705C53.8983 32.0424 53.8866 31.7611 53.8163 31.5268C53.6757 30.9877 53.3124 30.601 52.7265 30.3666C51.039 29.8979 49.5624 30.2729 48.2968 31.4916C47.0546 32.6869 46.164 34.6557 45.6249 37.3979C45.3671 38.7572 45.121 40.1752 44.8866 41.6518C44.6757 43.1049 44.5937 44.4408 44.6405 45.6596C44.6874 46.8549 44.9218 47.8275 45.3437 48.5775C45.7655 49.3275 46.4921 49.6791 47.5233 49.6322C48.5312 49.5854 49.3866 49.4213 50.0898 49.14C50.7929 48.8354 51.3554 48.4838 51.7773 48.0854C52.1991 47.6635 52.4921 47.2182 52.6562 46.7494C52.8437 46.2572 52.914 45.8002 52.8671 45.3783C52.7733 45.0502 52.5273 44.6986 52.1288 44.3236C51.7773 43.9955 51.2499 43.6322 50.5468 43.2338C49.8437 42.8119 48.8358 42.3783 47.5233 41.933C48.7655 41.8627 49.7851 41.8158 50.5819 41.7924C51.4023 41.7455 52.0468 41.6986 52.5155 41.6518C53.078 41.6049 53.5116 41.5697 53.8163 41.5463C54.0976 41.5229 54.5077 41.4994 55.0468 41.476C55.5155 41.4525 56.1132 41.4408 56.8398 41.4408C57.5898 41.4408 58.5273 41.4291 59.6523 41.4057C59.2304 41.8275 58.9023 42.2143 58.6679 42.5658C58.5507 42.7533 58.4452 42.9174 58.3515 43.058C58.2577 43.2924 58.2226 43.7729 58.246 44.4994C58.246 45.1088 58.2929 46.0111 58.3866 47.2065C58.4804 48.3783 58.6562 49.9838 58.914 52.0229L54.2382 52.6557L54.4491 47.9096C53.9101 49.1986 53.2304 50.1596 52.4101 50.7924C51.6132 51.4252 50.8515 51.8705 50.1249 52.1283C49.2577 52.433 48.3554 52.5736 47.4179 52.5502C46.1991 52.433 44.9804 52.1518 43.7616 51.7065C42.5429 51.2611 41.4648 50.5815 40.5273 49.6674C39.5898 48.7299 38.8632 47.5229 38.3476 46.0463C37.8554 44.5697 37.703 42.7416 37.8905 40.5619C38.1015 38.3822 38.6171 36.4838 39.4374 34.8666C40.2812 33.226 41.3241 31.8666 42.5663 30.7885C43.8085 29.7104 45.203 28.9018 46.7499 28.3627C48.3202 27.8002 49.9257 27.4955 51.5663 27.4486ZM64.1171 38.5932C64.2343 38.4525 64.3046 38.1947 64.328 37.8197C64.3749 37.4213 64.4687 36.976 64.6093 36.4838C64.7733 35.9916 65.0429 35.476 65.4179 34.9369C65.7929 34.3979 66.4023 33.894 67.246 33.4252C68.0663 32.9565 68.8632 32.6752 69.6366 32.5815C70.4101 32.4877 71.1483 32.5229 71.8515 32.6869C72.5546 32.851 73.2108 33.1088 73.8202 33.4604C74.453 33.8119 75.0273 34.1986 75.5429 34.6205C75.8944 34.9018 76.1757 35.3119 76.3866 35.851C76.5976 36.3666 76.7616 36.9525 76.8788 37.6088C76.996 38.265 77.078 38.9565 77.1249 39.683C77.1952 40.3861 77.2421 41.0775 77.2655 41.7572C77.289 42.4135 77.3007 43.0229 77.3007 43.5854C77.3241 44.1244 77.371 44.5697 77.4413 44.9213C77.5351 45.4369 77.6991 45.8822 77.9335 46.2572C78.1679 46.6088 78.4257 46.9135 78.7069 47.1713C78.9882 47.4057 79.2694 47.5932 79.5507 47.7338C79.8319 47.8744 80.078 47.9799 80.289 48.0502C80.4296 48.1205 80.5585 48.1674 80.6757 48.1908C80.9101 48.2846 81.0741 48.2846 81.1679 48.1908C81.0273 48.519 80.8983 48.8002 80.7812 49.0346C80.664 49.269 80.5702 49.4682 80.4999 49.6322C80.4062 49.8197 80.3241 49.9721 80.2538 50.0893C80.1835 50.2299 80.1015 50.3588 80.0077 50.476C79.9374 50.5932 79.8437 50.7221 79.7265 50.8627C79.6093 51.0033 79.4921 51.1557 79.3749 51.3197C79.0702 51.2025 78.7773 51.0619 78.496 50.8979C78.2382 50.7338 78.0038 50.5815 77.7929 50.4408C77.5351 50.2768 77.3007 50.1127 77.0898 49.9486C76.8788 49.7846 76.6796 49.5971 76.4921 49.3861C76.328 49.1986 76.1523 48.9994 75.9648 48.7885C75.8007 48.5775 75.6601 48.3432 75.5429 48.0854C75.4023 48.39 75.0624 48.8236 74.5233 49.3861C74.0077 49.9486 73.328 50.4643 72.4843 50.933C71.6405 51.3783 70.6562 51.6947 69.5312 51.8822C68.4296 52.0697 67.2108 51.9408 65.8749 51.4955C65.289 51.308 64.7382 51.0385 64.2226 50.6869C63.7069 50.3119 63.2616 49.8666 62.8866 49.351C62.5351 48.8354 62.2773 48.2494 62.1132 47.5932C61.9726 46.9135 61.9843 46.1635 62.1483 45.3432C62.3124 44.5229 62.6054 43.8315 63.0273 43.269C63.4491 42.7065 63.953 42.2494 64.539 41.8979C65.1249 41.5463 65.7812 41.2768 66.5077 41.0893C67.2343 40.9018 67.9843 40.7729 68.7577 40.7025C69.3671 40.6791 69.9765 40.7143 70.5858 40.808C71.1015 40.9018 71.6405 41.0775 72.203 41.3354C72.7655 41.5697 73.246 41.933 73.6444 42.4252C73.621 41.183 73.5741 40.1986 73.5038 39.4721C73.4569 38.7221 73.4101 38.1479 73.3632 37.7494C73.2694 37.2807 73.1874 36.9525 73.1171 36.765C72.9999 36.601 72.871 36.4135 72.7304 36.2025C72.6132 35.9916 72.4608 35.8041 72.2733 35.64C72.0858 35.4525 71.8515 35.3002 71.5702 35.183C71.289 35.0658 70.9608 35.019 70.5858 35.0424C70.1874 35.0658 69.871 35.1713 69.6366 35.3588C69.4023 35.5463 69.2148 35.769 69.0741 36.0268C68.9569 36.2611 68.8866 36.519 68.8632 36.8002C68.8398 37.0815 68.8515 37.3275 68.8983 37.5385C68.9452 37.6791 69.0155 37.8315 69.1093 37.9955C69.203 38.1361 69.3319 38.2885 69.496 38.4525C69.6601 38.6166 69.8827 38.7572 70.164 38.8744C69.6249 38.9447 69.1444 39.0033 68.7226 39.0502C68.3007 39.0736 67.9374 39.1088 67.6327 39.1557C67.2812 39.2025 66.9765 39.2377 66.7187 39.2611C66.4608 39.2846 66.1562 39.3315 65.8046 39.4018C65.4999 39.4486 65.1249 39.5072 64.6796 39.5775C64.2343 39.6479 63.7187 39.7416 63.1327 39.8588C63.2733 39.6947 63.4023 39.5424 63.5194 39.4018C63.6366 39.2377 63.7421 39.0971 63.8358 38.9799C63.9296 38.8393 64.0233 38.7104 64.1171 38.5932ZM69.3905 42.7768C68.9687 42.8002 68.5468 42.9057 68.1249 43.0932C67.703 43.2572 67.328 43.5033 66.9999 43.8315C66.6718 44.1361 66.3905 44.4994 66.1562 44.9213C65.9452 45.3197 65.8398 45.765 65.8398 46.2572C65.8398 46.7494 65.9569 47.183 66.1913 47.558C66.4491 47.9096 66.7773 48.2025 67.1757 48.4369C67.5976 48.6713 68.0429 48.8119 68.5116 48.8588C69.0038 48.9057 69.4843 48.8588 69.953 48.7182C70.3983 48.5541 70.8202 48.2963 71.2187 47.9447C71.6171 47.5697 71.9569 47.1713 72.2382 46.7494C72.5194 46.3041 72.7187 45.8705 72.8358 45.4486C72.953 45.0033 72.9648 44.64 72.871 44.3588C72.6835 43.7494 72.2616 43.3275 71.6054 43.0932C70.9491 42.8354 70.2108 42.7299 69.3905 42.7768ZM81.6249 53.8158C81.8593 53.4643 82.0468 53.1361 82.1874 52.8315C82.328 52.5268 82.4452 52.269 82.539 52.058C82.6327 51.8002 82.703 51.5658 82.7499 51.3549C82.7733 51.2143 82.7851 50.8041 82.7851 50.1244C82.7851 49.4447 82.7616 48.5893 82.7148 47.558C82.6913 46.5268 82.6562 45.3666 82.6093 44.0775C82.5858 42.7885 82.539 41.476 82.4687 40.14C82.4218 38.8041 82.3632 37.5033 82.2929 36.2377C82.246 34.9721 82.1991 33.8354 82.1523 32.8275C82.1054 31.7963 82.0585 30.9525 82.0116 30.2963C81.9648 29.64 81.9296 29.265 81.9062 29.1713C81.8593 29.0307 81.7773 28.89 81.6601 28.7494C81.4257 28.4682 81.0273 28.1986 80.4648 27.9408C81.6601 27.6361 82.5741 27.39 83.2069 27.2025C83.5819 27.1088 83.9101 27.015 84.1913 26.9213C84.4491 26.8275 84.7069 26.7338 84.9648 26.64C85.1757 26.5463 85.4101 26.4408 85.6679 26.3236C85.9257 26.183 86.1601 26.0307 86.371 25.8666C86.2538 26.5463 86.1601 27.2025 86.0898 27.8354C86.0194 28.4682 85.9608 29.0541 85.914 29.5932C85.8671 30.2025 85.8437 30.7885 85.8437 31.351C85.7265 32.4994 85.6562 33.7533 85.6327 35.1127C85.6327 36.4486 85.6444 37.808 85.6679 39.1908C85.6913 40.5736 85.7382 41.9213 85.8085 43.2338C85.8788 44.5463 85.9491 45.7416 86.0194 46.8197C86.1132 47.8744 86.1952 48.7768 86.2655 49.5268C86.3593 50.2533 86.4296 50.7221 86.4765 50.933C86.5702 51.2846 86.664 51.6244 86.7577 51.9525C86.8515 52.2338 86.9569 52.5268 87.0741 52.8315C87.1913 53.1596 87.3319 53.4174 87.496 53.6049H84.0858C83.7812 53.6049 83.4882 53.6166 83.2069 53.64C82.9491 53.6635 82.6796 53.6869 82.3983 53.7104C82.1171 53.7338 81.8593 53.769 81.6249 53.8158ZM89.5702 53.8158C89.8046 53.4643 89.9921 53.1361 90.1327 52.8315C90.2733 52.5268 90.3905 52.269 90.4843 52.058C90.578 51.8002 90.6483 51.5658 90.6952 51.3549C90.7187 51.2143 90.7304 50.8041 90.7304 50.1244C90.7304 49.4447 90.7069 48.5893 90.6601 47.558C90.6366 46.5268 90.6015 45.3666 90.5546 44.0775C90.5312 42.7885 90.4843 41.476 90.414 40.14C90.3671 38.8041 90.3085 37.5033 90.2382 36.2377C90.1913 34.9721 90.1444 33.8354 90.0976 32.8275C90.0507 31.7963 90.0038 30.9525 89.9569 30.2963C89.9101 29.64 89.8749 29.265 89.8515 29.1713C89.8046 29.0307 89.7226 28.89 89.6054 28.7494C89.371 28.4682 88.9726 28.1986 88.4101 27.9408C89.6054 27.6361 90.5194 27.39 91.1523 27.2025C91.5273 27.1088 91.8554 27.015 92.1366 26.9213C92.3944 26.8275 92.6523 26.7338 92.9101 26.64C93.121 26.5463 93.3554 26.4408 93.6132 26.3236C93.871 26.183 94.1054 26.0307 94.3163 25.8666C94.1991 26.5463 94.1054 27.2025 94.0351 27.8354C93.9648 28.4682 93.9062 29.0541 93.8593 29.5932C93.8124 30.2025 93.789 30.7885 93.789 31.351C93.6718 32.4994 93.6015 33.7533 93.578 35.1127C93.578 36.4486 93.5898 37.808 93.6132 39.1908C93.6366 40.5736 93.6835 41.9213 93.7538 43.2338C93.8241 44.5463 93.8944 45.7416 93.9648 46.8197C94.0585 47.8744 94.1405 48.7768 94.2108 49.5268C94.3046 50.2533 94.3749 50.7221 94.4218 50.933C94.5155 51.2846 94.6093 51.6244 94.703 51.9525C94.7968 52.2338 94.9023 52.5268 95.0194 52.8315C95.1366 53.1596 95.2773 53.4174 95.4413 53.6049H92.0312C91.7265 53.6049 91.4335 53.6166 91.1523 53.64C90.8944 53.6635 90.6249 53.6869 90.3437 53.7104C90.0624 53.7338 89.8046 53.769 89.5702 53.8158ZM105.848 47.1713C106.504 47.1713 107.113 47.101 107.676 46.9604C108.144 46.8432 108.59 46.6557 109.012 46.3979C109.457 46.1166 109.75 45.7065 109.891 45.1674C110.359 45.2611 110.758 45.3432 111.086 45.4135C111.414 45.4604 111.695 45.5072 111.93 45.5541C112.187 45.6244 112.41 45.6713 112.598 45.6947C112.785 45.7416 113.008 45.7885 113.266 45.8354C113.5 45.8822 113.781 45.9408 114.109 46.0111C114.461 46.058 114.871 46.1283 115.34 46.2221C114.988 46.1752 114.625 46.2104 114.25 46.3275C113.898 46.4447 113.559 46.5736 113.23 46.7143C112.855 46.8783 112.504 47.0775 112.176 47.3119C111.965 47.4525 111.719 47.6635 111.437 47.9447C111.18 48.226 110.805 48.4955 110.312 48.7533C109.82 49.0111 109.164 49.2338 108.344 49.4213C107.547 49.5854 106.516 49.644 105.25 49.5971C103.726 49.5502 102.449 49.2807 101.418 48.7885C100.387 48.2729 99.5546 47.6518 98.9218 46.9252C98.289 46.1752 97.8319 45.3666 97.5507 44.4994C97.2694 43.6322 97.1171 42.8236 97.0937 42.0736C97.0702 41.3236 97.2929 40.5385 97.7616 39.7182C98.2304 38.8979 98.8866 38.1479 99.7304 37.4682C100.598 36.7885 101.641 36.2377 102.859 35.8158C104.078 35.3705 105.414 35.1479 106.867 35.1479C107.711 35.1479 108.484 35.2533 109.187 35.4643C109.914 35.6518 110.57 35.9096 111.156 36.2377C111.766 36.5658 112.293 36.9408 112.738 37.3627C113.184 37.7611 113.559 38.1713 113.863 38.5932C114.168 39.0385 114.426 39.5072 114.637 39.9994C114.824 40.4213 114.976 40.9018 115.094 41.4408C115.211 41.9799 115.246 42.5307 115.199 43.0932C113.418 43.14 111.976 43.1752 110.875 43.1986C109.797 43.2221 108.953 43.2338 108.344 43.2338H106.762H105.566C105.144 43.2338 104.594 43.2455 103.914 43.269C103.234 43.2924 102.402 43.3275 101.418 43.3744C101.535 44.3119 101.828 45.0385 102.297 45.5541C102.789 46.0463 103.305 46.4213 103.844 46.6791C104.453 46.9604 105.121 47.1244 105.848 47.1713ZM102.684 40.8432C103.434 40.89 104.055 40.9252 104.547 40.9486C105.062 40.9721 105.484 40.9955 105.812 41.019C106.164 41.0424 106.445 41.0541 106.656 41.0541H107.535C108.121 41.0541 109.211 41.019 110.805 40.9486C110.734 39.9174 110.512 39.1322 110.137 38.5932C109.785 38.0541 109.41 37.6557 109.012 37.3979C108.543 37.1166 108.027 36.9525 107.465 36.9057C105.941 36.9291 104.805 37.2455 104.055 37.8549C103.328 38.4643 102.871 39.4604 102.684 40.8432ZM116.254 35.9916C116.699 36.015 117.098 36.0268 117.449 36.0268C117.824 36.0033 118.141 35.9799 118.398 35.9565C118.703 35.933 118.973 35.9096 119.207 35.8861C119.559 35.8393 119.922 35.7807 120.297 35.7104C120.625 35.6635 120.965 35.6049 121.316 35.5346C121.691 35.4408 122.055 35.3354 122.406 35.2182C122.266 35.5697 122.148 35.8744 122.055 36.1322C121.961 36.39 121.891 36.6127 121.844 36.8002C121.773 37.0111 121.738 37.1869 121.738 37.3275C121.715 37.4916 121.703 37.6908 121.703 37.9252C121.68 38.3236 121.68 38.9682 121.703 39.8588C122.922 38.8041 123.941 37.9838 124.762 37.3979C125.605 36.8119 126.273 36.3549 126.766 36.0268C127.351 35.6518 127.809 35.4057 128.137 35.2885C129.004 35.1479 129.766 35.3471 130.422 35.8861C130.703 36.1205 130.973 36.4369 131.23 36.8354C131.488 37.2104 131.711 37.7143 131.898 38.3471C132.086 38.9799 132.226 39.7416 132.32 40.6322C132.414 41.4994 132.426 42.5424 132.355 43.7611C131.863 43.808 131.418 43.8549 131.019 43.9018C130.644 43.9486 130.328 43.9838 130.07 44.0072C129.766 44.0541 129.484 44.0775 129.226 44.0775L128.277 44.183C127.949 44.2299 127.539 44.2768 127.047 44.3236C126.578 44.3471 126.004 44.394 125.324 44.4643C126.309 43.6674 126.941 42.976 127.223 42.39C127.527 41.7807 127.656 41.2768 127.609 40.8783C127.562 40.433 127.351 40.0463 126.976 39.7182C126.531 39.4604 126.051 39.3666 125.535 39.4369C125.09 39.4838 124.574 39.683 123.988 40.0346C123.402 40.3861 122.781 41.0424 122.125 42.0033C122.172 43.5033 122.219 44.7455 122.266 45.7299C122.336 46.7143 122.394 47.5111 122.441 48.1205C122.512 48.8236 122.57 49.3744 122.617 49.7729C122.687 50.1244 122.828 50.4994 123.039 50.8979C123.203 51.226 123.437 51.5893 123.742 51.9877C124.047 52.3861 124.445 52.7846 124.937 53.183C123.906 53.1361 123.062 53.1361 122.406 53.183C122.008 53.2065 121.656 53.2299 121.351 53.2533C121.023 53.3002 120.672 53.3471 120.297 53.394C119.969 53.4408 119.582 53.4877 119.137 53.5346C118.715 53.6049 118.246 53.6752 117.73 53.7455C117.918 53.4877 118.07 53.183 118.187 52.8315C118.305 52.5033 118.398 52.1869 118.469 51.8822C118.562 51.5307 118.633 51.1674 118.68 50.7924C118.703 50.4643 118.715 49.9721 118.715 49.3158C118.738 48.6596 118.726 47.9213 118.68 47.101C118.656 46.2572 118.621 45.39 118.574 44.4994C118.527 43.5854 118.469 42.7299 118.398 41.933C118.328 41.1361 118.246 40.4447 118.152 39.8588C118.082 39.2494 118 38.8275 117.906 38.5932C117.789 38.3119 117.648 38.0307 117.484 37.7494C117.344 37.4916 117.168 37.2221 116.957 36.9408C116.746 36.6361 116.512 36.3197 116.254 35.9916ZM132.039 34.8666C132.508 34.9369 132.93 34.9955 133.305 35.0424C133.656 35.0658 133.973 35.0893 134.254 35.1127C134.559 35.1361 134.851 35.1479 135.133 35.1479C135.391 35.1479 135.719 35.1361 136.117 35.1127C136.445 35.0893 136.867 35.0658 137.383 35.0424C137.922 34.9955 138.555 34.9369 139.281 34.8666C139.234 34.9604 139.141 35.2533 139 35.7455C138.859 36.2143 138.719 36.8002 138.578 37.5033C138.437 38.183 138.309 38.9447 138.191 39.7885C138.098 40.6088 138.051 41.4291 138.051 42.2494C138.074 43.0463 138.18 43.808 138.367 44.5346C138.555 45.2377 138.859 45.8119 139.281 46.2572C140.172 47.1713 140.957 47.7221 141.637 47.9096C142.34 48.0971 142.949 48.0736 143.465 47.8393C143.98 47.6049 144.402 47.2533 144.73 46.7846C145.059 46.3158 145.293 45.8822 145.434 45.4838C145.785 44.4057 145.996 43.269 146.066 42.0736C146.113 41.0424 146.031 39.894 145.82 38.6283C145.609 37.3627 145.105 36.0736 144.309 34.7611C144.918 34.808 145.445 34.8432 145.891 34.8666C146.336 34.89 146.723 34.9135 147.051 34.9369C147.426 34.9604 147.754 34.9838 148.035 35.0072C148.293 35.0307 148.598 35.0307 148.949 35.0072C149.254 35.0072 149.617 34.9955 150.039 34.9721C150.484 34.9252 150.976 34.8783 151.516 34.8315C151.609 37.1283 151.691 39.1791 151.762 40.9838C151.832 42.765 151.879 44.3471 151.902 45.7299C151.949 47.0893 151.973 48.2729 151.973 49.2807C151.973 50.265 151.973 51.0971 151.973 51.7768C151.949 53.394 151.879 54.4604 151.762 54.976C151.574 55.7025 151.234 56.4291 150.742 57.1557C150.273 57.8822 149.676 58.5268 148.949 59.0893C148.223 59.6752 147.379 60.1205 146.418 60.4252C145.48 60.7533 144.449 60.8705 143.324 60.7768C142.223 60.683 141.344 60.5307 140.687 60.3197C140.055 60.1322 139.551 59.9096 139.176 59.6518C138.824 59.394 138.566 59.1244 138.402 58.8432C138.262 58.5619 138.156 58.269 138.086 57.9643C138.016 57.683 137.945 57.4135 137.875 57.1557C137.805 56.8979 137.664 56.6752 137.453 56.4877C137.195 56.2768 136.926 56.0658 136.644 55.8549C136.387 55.6674 136.105 55.4799 135.801 55.2924C135.519 55.1049 135.238 54.9525 134.957 54.8354L142.445 54.4135C142.234 54.6947 142.082 54.9525 141.988 55.1869C141.894 55.4213 141.836 55.6205 141.812 55.7846C141.789 55.9955 141.801 56.1713 141.848 56.3119C141.941 56.5932 142.105 56.8979 142.34 57.226C142.598 57.5775 142.926 57.8471 143.324 58.0346C143.723 58.2455 144.191 58.3158 144.73 58.2455C145.293 58.1752 145.926 57.8822 146.629 57.3666C147.215 56.9213 147.707 56.2065 148.105 55.2221C148.434 54.3783 148.691 53.1947 148.879 51.6713C149.066 50.1479 149.031 48.144 148.773 45.6596C148.351 47.1127 147.777 48.226 147.051 48.9994C146.324 49.7729 145.598 50.3354 144.871 50.6869C144.027 51.1088 143.148 51.3315 142.234 51.3549C141.016 51.308 139.973 51.1557 139.105 50.8979C138.238 50.6166 137.523 50.2416 136.961 49.7729C136.398 49.3041 135.953 48.7533 135.625 48.1205C135.32 47.4643 135.098 46.7377 134.957 45.9408C134.816 45.144 134.746 44.3471 134.746 43.5502C134.746 42.7299 134.746 41.9682 134.746 41.265C134.769 40.5619 134.781 39.9291 134.781 39.3666C134.781 38.7807 134.723 38.3119 134.605 37.9604C134.465 37.6088 134.277 37.2572 134.043 36.9057C133.855 36.601 133.598 36.2729 133.269 35.9213C132.918 35.5463 132.508 35.1947 132.039 34.8666Z" fill="#131313"/>
</svg>
