<svg width="190" height="84" viewBox="0 0 190 84" fill="none" xmlns="http://www.w3.org/2000/svg">
<line x1="0.574333" y1="39.5393" x2="0.574333" y2="1.14441e-05" stroke="#E90000"/>
<line x1="40.5056" y1="0.500275" x2="0.966309" y2="0.500275" stroke="#E90000"/>
<line x1="6.732" y1="39.539" x2="6.732" y2="5.83388" stroke="#E90000"/>
<line x1="40.505" y1="6.33386" x2="7.23201" y2="6.33386" stroke="#E90000"/>
<line x1="188.976" y1="44.191" x2="188.976" y2="83.7303" stroke="#E90000"/>
<line x1="149.045" y1="83.2301" x2="188.584" y2="83.2301" stroke="#E90000"/>
<line x1="182.819" y1="44.1913" x2="182.819" y2="77.8965" stroke="#E90000"/>
<line x1="149.046" y1="77.3965" x2="182.319" y2="77.3965" stroke="#E90000"/>
<rect x="21.1236" y="20.1573" width="149.629" height="48.0674" fill="#E31616"/>
<path d="M45.9102 28.0391C46.7305 28.1328 47.4219 28.2031 47.9844 28.25C48.5469 28.2734 48.9922 28.2969 49.3203 28.3203C49.7188 28.3438 50.0352 28.3555 50.2695 28.3555C50.668 28.3555 51.125 28.3438 51.6406 28.3203C52.0859 28.2969 52.6016 28.2617 53.1875 28.2148C53.7969 28.1445 54.4531 28.0391 55.1562 27.8984C54.8281 28.25 54.5586 28.5898 54.3477 28.918C54.1367 29.2227 53.9727 29.5039 53.8555 29.7617C53.7148 30.043 53.5977 30.3008 53.5039 30.5352C53.4102 30.8398 53.3047 31.3086 53.1875 31.9414C53.0703 32.4805 52.9414 33.2422 52.8008 34.2266C52.6836 35.2109 52.5312 36.5 52.3438 38.0938C53.1406 38.1172 53.832 38.1289 54.418 38.1289C55.0039 38.1055 55.4961 38.0938 55.8945 38.0938H57.0547C57.3828 38.0703 57.7578 38.0469 58.1797 38.0234C58.8828 38 59.9492 37.9297 61.3789 37.8125C61.4961 36.7344 61.5547 35.8086 61.5547 35.0352C61.5781 34.2383 61.5664 33.5703 61.5195 33.0312C61.4727 32.4219 61.4023 31.9062 61.3086 31.4844C61.2383 31.25 61.1328 30.9688 60.9922 30.6406C60.875 30.3594 60.7109 30.0195 60.5 29.6211C60.3125 29.1992 60.0547 28.6953 59.7266 28.1094C60.3359 28.2031 60.875 28.2734 61.3438 28.3203C61.8359 28.3438 62.2461 28.3672 62.5742 28.3906C62.9492 28.4141 63.2656 28.4258 63.5234 28.4258C63.7812 28.4258 64.1211 28.4141 64.543 28.3906C64.8945 28.3672 65.3281 28.3555 65.8438 28.3555C66.3594 28.332 66.9922 28.2969 67.7422 28.25C67.5547 28.5781 67.3906 28.918 67.25 29.2695C67.1094 29.6211 66.9922 29.9375 66.8984 30.2188C66.8047 30.5469 66.7109 30.875 66.6172 31.2031C66.5 31.6953 66.3945 32.4102 66.3008 33.3477C66.2305 34.2852 66.1602 35.3281 66.0898 36.4766C66.043 37.625 65.9961 38.8203 65.9492 40.0625C65.9258 41.3047 65.9023 42.4766 65.8789 43.5781C65.8789 44.6797 65.8906 45.6641 65.9141 46.5312C65.9375 47.375 65.9844 47.9727 66.0547 48.3242C66.125 48.7461 66.2422 49.1797 66.4062 49.625C66.5469 50.0234 66.7344 50.457 66.9688 50.9258C67.2031 51.3711 67.5078 51.793 67.8828 52.1914L59.4102 52.8242C59.7617 52.4961 60.043 52.1797 60.2539 51.875C60.4648 51.5469 60.6289 51.2656 60.7461 51.0312C60.8633 50.7734 60.9453 50.5273 60.9922 50.293C61.0156 50.0117 61.0508 49.5195 61.0977 48.8164C61.1445 48.2305 61.1914 47.3984 61.2383 46.3203C61.2852 45.2422 61.332 43.8125 61.3789 42.0312C61.0508 42.0312 60.6523 42.043 60.1836 42.0664C59.7383 42.0664 59.3164 42.0781 58.918 42.1016C58.4492 42.125 57.957 42.1367 57.4414 42.1367C56.9258 42.1602 56.3867 42.1836 55.8242 42.207C55.3555 42.2539 54.8281 42.3008 54.2422 42.3477C53.6797 42.3711 53.1172 42.4062 52.5547 42.4531C52.5078 43.4375 52.5078 44.3047 52.5547 45.0547C52.6016 45.7812 52.6719 46.4023 52.7656 46.918C52.8594 47.5273 52.9766 48.0547 53.1172 48.5C53.2578 48.9219 53.4102 49.3438 53.5742 49.7656C53.7148 50.1406 53.8789 50.5391 54.0664 50.9609C54.2773 51.3828 54.4883 51.7578 54.6992 52.0859C54.2539 52.0391 53.8438 52.0039 53.4688 51.9805C53.0938 51.9336 52.7656 51.8867 52.4844 51.8398C52.1562 51.8164 51.8398 51.793 51.5352 51.7695C51.2305 51.7695 50.8672 51.7578 50.4453 51.7344C50.0703 51.7109 49.6016 51.6992 49.0391 51.6992C48.4766 51.6758 47.8203 51.6641 47.0703 51.6641C47.5156 51.2188 47.8672 50.7852 48.125 50.3633C48.4062 49.918 48.6055 49.5195 48.7227 49.168C48.8633 48.7461 48.957 48.3594 49.0039 48.0078C49.0273 47.7031 49.0391 47.1289 49.0391 46.2852C49.0625 45.4414 49.0625 44.4805 49.0391 43.4023C49.0391 42.3008 49.0273 41.1523 49.0039 39.957C48.9805 38.7383 48.9453 37.6016 48.8984 36.5469C48.875 35.4922 48.8398 34.5898 48.793 33.8398C48.7695 33.0664 48.7461 32.5859 48.7227 32.3984C48.6055 31.9766 48.4297 31.5195 48.1953 31.0273C47.9844 30.6289 47.7031 30.1719 47.3516 29.6562C47 29.1172 46.5195 28.5781 45.9102 28.0391ZM78.1836 37.25C78.793 37.25 79.4258 37.3672 80.082 37.6016C80.7383 37.8125 81.3711 38.0938 81.9805 38.4453C82.5898 38.7734 83.1406 39.1367 83.6328 39.5352C84.1484 39.9102 84.5703 40.2734 84.8984 40.625C85.4844 41.2578 85.8828 42.1133 86.0938 43.1914C86.3281 44.2461 86.375 45.3359 86.2344 46.4609C86.0938 47.5625 85.7656 48.6055 85.25 49.5898C84.7344 50.5742 84.0195 51.3008 83.1055 51.7695C82.4492 52.0977 81.8047 52.3555 81.1719 52.543C80.5391 52.7305 79.9297 52.8711 79.3438 52.9648C78.7578 53.0586 78.207 53.1055 77.6914 53.1055C77.1758 53.1055 76.7305 53.0938 76.3555 53.0703C75.6523 53.0234 74.9141 52.7773 74.1406 52.332C73.3906 51.8867 72.6758 51.3359 71.9961 50.6797C71.3398 50.0234 70.7773 49.3086 70.3086 48.5352C69.8398 47.7383 69.5586 46.9883 69.4648 46.2852C69.3242 45.3242 69.3008 44.3164 69.3945 43.2617C69.4883 42.207 69.8281 41.2344 70.4141 40.3438C71.0234 39.4531 71.9375 38.7148 73.1562 38.1289C74.3984 37.543 76.0742 37.25 78.1836 37.25ZM77.0234 50.8906C77.2812 50.9375 77.6328 50.8789 78.0781 50.7148C78.5234 50.5273 78.957 50.2344 79.3789 49.8359C79.8242 49.4375 80.2109 48.9336 80.5391 48.3242C80.8906 47.6914 81.1016 46.9297 81.1719 46.0391C81.2422 45.1719 81.2422 44.375 81.1719 43.6484C81.125 42.9219 81.0195 42.2891 80.8555 41.75C80.6914 41.1875 80.5039 40.7305 80.293 40.3789C80.082 40.0273 79.8594 39.7812 79.625 39.6406C79.2266 39.4297 78.7461 39.2656 78.1836 39.1484C77.6211 39.0078 77.1406 39.0312 76.7422 39.2188C76.5547 39.3125 76.3203 39.5117 76.0391 39.8164C75.7578 40.1211 75.4766 40.5078 75.1953 40.9766C74.9141 41.4219 74.6562 41.9375 74.4219 42.5234C74.2109 43.1094 74.0586 43.7188 73.9648 44.3516C73.8711 44.9844 73.8477 45.6641 73.8945 46.3906C73.9648 47.1172 74.1172 47.8086 74.3516 48.4648C74.5859 49.0977 74.9141 49.6484 75.3359 50.1172C75.7812 50.5625 76.3438 50.8203 77.0234 50.8906ZM87.7461 36.3359C88.2852 36.2891 88.7422 36.2422 89.1172 36.1953C89.5156 36.1484 89.8438 36.1016 90.1016 36.0547C90.4062 36.0078 90.6641 35.9609 90.875 35.9141C91.0859 35.8906 91.3203 35.8438 91.5781 35.7734C91.8125 35.7266 92.0703 35.668 92.3516 35.5977C92.6562 35.5039 92.9844 35.3984 93.3359 35.2812L93.125 39.7461C93.6406 38.9258 94.2383 38.3047 94.918 37.8828C95.5977 37.4375 96.2422 37.1094 96.8516 36.8984C97.5781 36.6406 98.3047 36.4883 99.0312 36.4414C99.7812 36.4648 100.473 36.582 101.105 36.793C101.645 36.9805 102.184 37.2734 102.723 37.6719C103.285 38.0703 103.719 38.6562 104.023 39.4297C104.82 38.6094 105.605 37.9766 106.379 37.5312C107.176 37.0625 107.879 36.7109 108.488 36.4766C109.215 36.2188 109.895 36.0664 110.527 36.0195C111.371 35.9961 112.145 36.1367 112.848 36.4414C113.574 36.7461 114.207 37.1328 114.746 37.6016C115.285 38.0469 115.719 38.5273 116.047 39.043C116.375 39.5352 116.562 39.9688 116.609 40.3438C116.68 40.8594 116.645 41.5273 116.504 42.3477C116.363 43.1445 116.199 43.9648 116.012 44.8086C115.824 45.6289 115.648 46.3906 115.484 47.0938C115.344 47.7734 115.285 48.2539 115.309 48.5352C115.379 48.7695 115.543 49.0508 115.801 49.3789C116.035 49.6602 116.375 50.0117 116.82 50.4336C117.289 50.832 117.957 51.3008 118.824 51.8398C118.074 51.8164 117.406 51.793 116.82 51.7695C116.258 51.7461 115.777 51.7109 115.379 51.6641C114.91 51.6172 114.5 51.582 114.148 51.5586C113.867 51.5586 113.527 51.5352 113.129 51.4883C112.801 51.4648 112.367 51.4297 111.828 51.3828C111.312 51.3359 110.715 51.2891 110.035 51.2422C110.293 51.1719 110.504 51.043 110.668 50.8555C110.832 50.6445 110.973 50.4453 111.09 50.2578C111.207 50.0234 111.301 49.7656 111.371 49.4844C111.418 49.25 111.465 48.875 111.512 48.3594C111.559 47.8438 111.594 47.2578 111.617 46.6016C111.664 45.9453 111.688 45.2539 111.688 44.5273C111.711 43.8008 111.711 43.1094 111.688 42.4531C111.664 41.7969 111.617 41.1992 111.547 40.6602C111.477 40.1211 111.383 39.7109 111.266 39.4297C111.172 39.2188 111.008 39.0547 110.773 38.9375C110.539 38.7969 110.27 38.7148 109.965 38.6914C109.66 38.6445 109.355 38.6562 109.051 38.7266C108.746 38.7734 108.477 38.8672 108.242 39.0078C108.031 39.1719 107.75 39.3945 107.398 39.6758C107.094 39.9336 106.695 40.2852 106.203 40.7305C105.711 41.1758 105.09 41.7383 104.34 42.418C104.27 43.8945 104.211 45.0898 104.164 46.0039C104.141 46.8945 104.117 47.5742 104.094 48.043C104.07 48.6055 104.059 48.9922 104.059 49.2031C104.035 49.3906 104.047 49.5664 104.094 49.7305C104.141 50.082 104.281 50.4102 104.516 50.7148C104.234 50.6445 103.93 50.5977 103.602 50.5742C103.297 50.5508 103.016 50.5273 102.758 50.5039C102.453 50.4805 102.148 50.4688 101.844 50.4688C101.586 50.4688 101.305 50.4805 101 50.5039C100.742 50.5273 100.426 50.5625 100.051 50.6094C99.6758 50.6328 99.2656 50.668 98.8203 50.7148C99.0078 50.5977 99.1602 50.457 99.2773 50.293C99.3945 50.1289 99.4883 49.9766 99.5586 49.8359C99.6523 49.6719 99.7227 49.5195 99.7695 49.3789C99.793 49.2383 99.8398 48.8984 99.9102 48.3594C99.9805 47.7969 100.027 47.1406 100.051 46.3906C100.074 45.6406 100.074 44.8555 100.051 44.0352C100.027 43.1914 99.9453 42.4297 99.8047 41.75C99.6641 41.0469 99.4414 40.4727 99.1367 40.0273C98.8555 39.582 98.4805 39.3828 98.0117 39.4297C97.4492 39.4766 96.875 39.6172 96.2891 39.8516C95.7969 40.0391 95.2695 40.3203 94.707 40.6953C94.1445 41.0703 93.6172 41.5742 93.125 42.207C93.0312 43.9648 92.9727 45.3594 92.9492 46.3906C92.9492 47.4219 92.9609 48.207 92.9844 48.7461C93.0078 49.3789 93.0312 49.8125 93.0547 50.0469C93.0781 50.2109 93.1367 50.375 93.2305 50.5391C93.3008 50.6797 93.3828 50.8438 93.4766 51.0312C93.5938 51.2188 93.7227 51.3945 93.8633 51.5586L88.2734 51.2773C88.4609 51.1836 88.625 51.0664 88.7656 50.9258C88.9062 50.7617 89.0234 50.5977 89.1172 50.4336C89.2109 50.2461 89.3047 50.0586 89.3984 49.8711C89.4688 49.707 89.5273 49.3203 89.5742 48.7109C89.6445 48.1016 89.7031 47.3867 89.75 46.5664C89.7969 45.7227 89.832 44.8438 89.8555 43.9297C89.9023 42.9922 89.9258 42.125 89.9258 41.3281C89.9492 40.5078 89.9609 39.8164 89.9609 39.2539C89.9609 38.668 89.9492 38.3164 89.9258 38.1992C89.8555 37.9648 89.7266 37.7188 89.5391 37.4609C89.375 37.2734 89.1523 37.0742 88.8711 36.8633C88.5898 36.6289 88.2148 36.4531 87.7461 36.3359ZM128.141 47.3398C128.797 47.3398 129.406 47.2695 129.969 47.1289C130.438 47.0117 130.883 46.8242 131.305 46.5664C131.75 46.2852 132.043 45.875 132.184 45.3359C132.652 45.4297 133.051 45.5117 133.379 45.582C133.707 45.6289 133.988 45.6758 134.223 45.7227C134.48 45.793 134.703 45.8398 134.891 45.8633C135.078 45.9102 135.301 45.957 135.559 46.0039C135.793 46.0508 136.074 46.1094 136.402 46.1797C136.754 46.2266 137.164 46.2969 137.633 46.3906C137.281 46.3438 136.918 46.3789 136.543 46.4961C136.191 46.6133 135.852 46.7422 135.523 46.8828C135.148 47.0469 134.797 47.2461 134.469 47.4805C134.258 47.6211 134.012 47.832 133.73 48.1133C133.473 48.3945 133.098 48.6641 132.605 48.9219C132.113 49.1797 131.457 49.4023 130.637 49.5898C129.84 49.7539 128.809 49.8125 127.543 49.7656C126.02 49.7188 124.742 49.4492 123.711 48.957C122.68 48.4414 121.848 47.8203 121.215 47.0938C120.582 46.3438 120.125 45.5352 119.844 44.668C119.562 43.8008 119.41 42.9922 119.387 42.2422C119.363 41.4922 119.586 40.707 120.055 39.8867C120.523 39.0664 121.18 38.3164 122.023 37.6367C122.891 36.957 123.934 36.4062 125.152 35.9844C126.371 35.5391 127.707 35.3164 129.16 35.3164C130.004 35.3164 130.777 35.4219 131.48 35.6328C132.207 35.8203 132.863 36.0781 133.449 36.4062C134.059 36.7344 134.586 37.1094 135.031 37.5312C135.477 37.9297 135.852 38.3398 136.156 38.7617C136.461 39.207 136.719 39.6758 136.93 40.168C137.117 40.5898 137.27 41.0703 137.387 41.6094C137.504 42.1484 137.539 42.6992 137.492 43.2617C135.711 43.3086 134.27 43.3438 133.168 43.3672C132.09 43.3906 131.246 43.4023 130.637 43.4023H129.055H127.859C127.438 43.4023 126.887 43.4141 126.207 43.4375C125.527 43.4609 124.695 43.4961 123.711 43.543C123.828 44.4805 124.121 45.207 124.59 45.7227C125.082 46.2148 125.598 46.5898 126.137 46.8477C126.746 47.1289 127.414 47.293 128.141 47.3398ZM124.977 41.0117C125.727 41.0586 126.348 41.0938 126.84 41.1172C127.355 41.1406 127.777 41.1641 128.105 41.1875C128.457 41.2109 128.738 41.2227 128.949 41.2227H129.828C130.414 41.2227 131.504 41.1875 133.098 41.1172C133.027 40.0859 132.805 39.3008 132.43 38.7617C132.078 38.2227 131.703 37.8242 131.305 37.5664C130.836 37.2852 130.32 37.1211 129.758 37.0742C128.234 37.0977 127.098 37.4141 126.348 38.0234C125.621 38.6328 125.164 39.6289 124.977 41.0117Z" fill="#131313"/>
</svg>
